<?xml version="1.0" standalone="no"?>
<!DOCTYPE svg PUBLIC "-//W3C//DTD SVG 20010904//EN"
 "http://www.w3.org/TR/2001/REC-SVG-20010904/DTD/svg10.dtd">
<svg version="1.0" xmlns="http://www.w3.org/2000/svg"
 width="260.000000pt" height="260.000000pt" viewBox="0 0 260.000000 260.000000"
 preserveAspectRatio="xMidYMid meet">
<metadata>
Created by potrace 1.14, written by Peter Selinger 2001-2017
</metadata>
<g transform="translate(0.000000,260.000000) scale(0.100000,-0.100000)"
fill="#000000" stroke="none">
<path d="M1115 2536 c-416 -70 -750 -314 -934 -682 -91 -183 -126 -337 -126
-554 0 -352 116 -632 364 -881 185 -184 382 -291 641 -346 118 -25 362 -25
480 0 259 55 456 162 641 346 184 185 291 382 346 641 25 118 25 362 0 480
-55 259 -162 456 -346 641 -184 183 -384 291 -636 344 -107 23 -327 28 -430
11z m-355 -1126 c68 -159 125 -288 127 -286 2 2 59 131 127 287 l122 284 97 3
c53 1 97 0 97 -4 0 -3 -80 -191 -177 -416 l-177 -409 -98 3 -99 3 -175 404
c-95 223 -174 408 -174 413 0 4 47 8 104 8 l103 0 123 -290z m1098 280 c110
-21 195 -82 236 -169 32 -69 29 -189 -6 -256 -28 -54 -54 -82 -105 -112 l-32
-19 89 -129 c50 -70 90 -130 90 -132 0 -1 -47 -3 -104 -3 l-103 0 -79 115 -79
114 -87 1 -88 0 0 -115 0 -115 -95 0 -95 0 0 415 0 415 204 0 c112 0 226 -4
254 -10z"/>
<path d="M1590 1401 l0 -141 113 0 c90 0 119 4 147 18 65 35 89 125 50 189
-32 53 -71 67 -197 71 l-113 4 0 -141z"/>
</g>
</svg>
